#!OML:ASF E:\inclinewalkrobotboard\Project 1\Capture day 1\Session 1\subject1.ASF
:FULLY-SPECIFIED
:DEGREES
194
root 7.94414 16.5076 12.0807 -179.19 1.53638 -178.062
lowerback 16.0416 -4.02172 -9.83417
upperback 7.17885 -5.64568 2.22624
thorax 0.0498108 -2.72041 8.76197
lowerneck -6.83648 1.84095 -1.67515
upperneck 22.7044 3.44044 2.97445
head 8.0499 2.21953 1.63675
rclavicle 1.8487e-014 -1.82882e-014
rhumerus -51.3752 -14.7574 -73.8911
rradius 45.7647
rwrist 5.49589
rhand -15.0915 -33.326
rfingers 7.12502
rthumb 11.0765 -63.0137
lclavicle 1.8487e-014 -1.82882e-014
lhumerus -0.675677 -29.2861 95.3649
lradius 81.251
lwrist -15.0815
lhand -38.354 -32.0105
lfingers 7.12502
lthumb -11.3807 -2.33935
rfemur -85.4671 16.4779 8.50584
rtibia 55.8036
rfoot 347.037 349.676
rtoes -29.3783
lfemur -16.3219 -2.95202 -24.3597
ltibia 31.7085
lfoot -18.6672 -5.18637
ltoes -59.4587
195
root 7.95898 16.5227 12.0467 -178.66 1.21285 -177.776
lowerback 15.1241 -3.77829 -9.8211
upperback 7.12716 -5.2831 2.25517
thorax 0.397251 -2.57549 8.66934
lowerneck -7.34736 1.60329 -1.91978
upperneck 22.7678 3.03312 3.43772
head 8.16169 2.04732 1.80781
rclavicle -1.27222e-014 -1.27222e-014
rhumerus -50.541 -14.1217 -74.2456
rradius 46.2343
rwrist 5.23181
rhand -15.3431 -33.6349
rfingers 7.12502
rthumb 10.8338 -63.3355
lclavicle -1.27222e-014 -1.27222e-014
lhumerus -1.29035 -30.2525 94.6974
lradius 80.4676
lwrist -15.6611
lhand -38.1033 -31.6677
lfingers 7.12502
lthumb -11.1389 -1.98333
rfemur -83.9374 16.2439 8.76418
rtibia 55.3553
rfoot 347.34 349.505
rtoes -28.1414
lfemur -16.8655 -2.65349 -23.8458
ltibia 31.8217
lfoot -18.5006 -5.57061
ltoes -59.9691
196
root 7.97449 16.5333 12.011 -178.105 0.901024 -177.483
lowerback 14.6662 -3.54136 -9.52456
upperback 6.69613 -5.00145 2.12136
thorax 0.0573365 -2.42295 8.30879
lowerneck -7.52062 1.37562 -2.13805
upperneck 23.0495 2.659 4.04274
head 8.28563 1.92836 2.02602
rclavicle -4.07509e-014 5.56597e-015
rhumerus -50.4788 -13.4265 -74.4828
rradius 46.6952
rwrist 4.96374
rhand -15.1985 -33.8248
rfingers 7.12502
rthumb 10.9733 -63.518
lclavicle -4.07509e-014 5.56597e-015
lhumerus -2.79811 -30.9585 94.2404
lradius 79.3631
lwrist -16.2748
lhand -37.8759 -32.1411
lfingers 7.12502
lthumb -10.9196 -2.44508
rfemur -82.4708 15.9878 9.12589
rtibia 54.817
rfoot 347.828 349.729
rtoes -27.7358
lfemur -17.3983 -2.48306 -23.3932
ltibia 31.8614
lfoot -18.228 -5.74838
ltoes -60.0593
197
root 7.98994 16.5406 11.9773 -177.586 0.70708 -177.262
lowerback 14.0504 -3.25767 -9.32254
upperback 6.4294 -4.62587 1.93992
thorax -0.0247083 -2.23738 7.9225
lowerneck -7.7814 1.14359 -2.23828
upperneck 23.2392 2.26884 4.52348
head 8.40255 1.79511 2.1805
rclavicle -1.72943e-014 1.51076e-014
rhumerus -50.3898 -12.8242 -74.654
rradius 47.179
rwrist 4.60302
rhand -14.8909 -34.3212
rfingers 7.12502
rthumb 11.27 -63.9984
lclavicle -1.72943e-014 1.51076e-014
lhumerus -3.8714 -31.6996 93.5496
lradius 77.7224
lwrist -16.5252
lhand -37.9359 -32.4588
lfingers 7.12502
lthumb -10.9774 -2.76583
rfemur -81.0865 15.809 9.46658
rtibia 54.2624
rfoot 348.311 350.149
rtoes -28.5469
lfemur -17.8228 -2.37919 -23.0813
ltibia 31.7445
lfoot -17.9069 -5.85233
ltoes -59.6744
198
root 8.00099 16.55 11.9413 -177.285 0.552722 -177.273
lowerback 13.5624 -2.9463 -9.38765
upperback 6.33138 -4.21592 1.71472
thorax 0.0319601 -2.04001 7.64337
lowerneck -8.16436 0.911532 -2.30348
upperneck 23.3368 1.87736 4.88099
head 8.51595 1.64536 2.286
rclavicle -2.8625e-014 2.38542e-014
rhumerus -50.2831 -12.1539 -74.7826
rradius 47.7034
rwrist 4.09428
rhand -14.9672 -34.5906
rfingers 7.12502
rthumb 11.1964 -64.2718
lclavicle -2.8625e-014 2.38542e-014
lhumerus -4.7298 -32.2403 92.8649
lradius 75.7725
lwrist -16.8505
lhand -38.3137 -32.3934
lfingers 7.12502
lthumb -11.3419 -2.72007
rfemur -79.4706 15.5783 9.73413
rtibia 53.6169
rfoot 348.848 350.679
rtoes -29.4475
lfemur -17.8757 -2.45193 -23.122
ltibia 31.4179
lfoot -17.3567 -5.98446
ltoes -58.8197
199
root 8.01537 16.5593 11.9026 -177.075 0.321554 -177.264
lowerback 13.2394 -2.63249 -9.54132
upperback 6.218 -3.82052 1.57296
thorax 0.00554948 -1.84669 7.52077
lowerneck -8.52437 0.69556 -2.24937
upperneck 23.5395 1.53688 5.07268
head 8.6645 1.51971 2.32234
rclavicle -3.77691e-014 -4.77083e-015
rhumerus -50.0233 -11.5998 -74.7562
rradius 48.073
rwrist 3.45668
rhand -14.6377 -35.0765
rfingers 7.12502
rthumb 11.5142 -64.7402
lclavicle -3.77691e-014 -4.77083e-015
lhumerus -5.89062 -32.4462 92.4754
lradius 73.6981
lwrist -17.2496
lhand -38.6441 -31.9378
lfingers 7.12502
lthumb -11.6605 -2.28231
rfemur -77.7184 15.3079 10.0443
rtibia 52.8541
rfoot 349.155 350.941
rtoes -29.3588
lfemur -17.7806 -2.80254 -23.1422
ltibia 31.0826
lfoot -16.8011 -6.04658
ltoes -57.7869
200
root 8.03378 16.5674 11.8673 -176.775 0.136545 -176.984
lowerback 12.8065 -2.29471 -9.60268
upperback 5.82067 -3.43051 1.57051
thorax -0.264241 -1.65337 7.50121
lowerneck -7.79413 0.537976 -2.06652
upperneck 23.5703 1.35133 5.11113
head 8.54825 1.47741 2.28046
rclavicle 7.15625e-015 -1.59028e-014
rhumerus -50.2153 -11.0904 -74.4296
rradius 48.3553
rwrist 2.91277
rhand -13.8251 -35.7924
rfingers 7.12502
rthumb 12.2977 -65.4108
lclavicle 7.15625e-015 -1.59028e-014
lhumerus -7.7595 -32.4054 92.4974
lradius 71.382
lwrist -17.5773
lhand -38.9282 -31.2544
lfingers 7.12502
lthumb -11.9344 -1.61463
rfemur -76.1493 15.1999 10.465
rtibia 52.1018
rfoot 349.021 350.865
rtoes -28.3587
lfemur -17.8744 -3.17815 -22.785
ltibia 30.9218
lfoot -16.5953 -5.93953
ltoes -57.064
201
root 8.04575 16.577 11.8353 -176.386 -0.0530485 -176.575
lowerback 12.2457 -2.04578 -9.35672
upperback 5.7338 -3.05237 1.59844
thorax -0.147748 -1.47466 7.32532
lowerneck -8.04911 0.45008 -2.17647
upperneck 23.6301 1.19033 5.38908
head 8.61923 1.42581 2.3845
rclavicle -3.22031e-014 -2.46493e-014
rhumerus -49.7313 -10.6778 -74.2192
rradius 48.3526
rwrist 2.84609
rhand -14.2101 -35.6674
rfingers 7.12502
rthumb 11.9266 -65.3077
lclavicle -3.22031e-014 -2.46493e-014
lhumerus -8.5768 -32.2026 91.9356
lradius 68.6222
lwrist -17.9653
lhand -39.1198 -30.6073
lfingers 7.12502
lthumb -12.1192 -0.978313
rfemur -74.7799 15.1112 10.8481
rtibia 51.3593
rfoot 348.968 350.736
rtoes -27.0259
lfemur -18.1859 -3.46322 -22.2745
ltibia 30.9157
lfoot -16.5467 -5.85402
ltoes -56.6982
202
root 8.05356 16.5903 11.8032 -176.028 -0.322163 -176.153
lowerback 11.7852 -1.0662 -8.87026
upperback 5.84149 -3.02172 1.76386
thorax 0.0990669 -2.03791 7.20587
lowerneck -8.98351 0.427199 -2.49178
upperneck 23.6905 1.10039 5.66307
head 8.81351 1.37269 2.53636
rclavicle 1.94809e-014 -4.45278e-014
rhumerus -48.5477 -10.0292 -74.1192
rradius 48.0342
rwrist 3.14195
rhand -14.8195 -34.9579
rfingers 7.12502
rthumb 11.3388 -64.6314
lclavicle 1.94809e-014 -4.45278e-014
lhumerus -8.91875 -31.4321 91.235
lradius 65.5564
lwrist -18.63
lhand -39.1961 -29.7261
lfingers 7.12502
lthumb -12.1927 -0.101412
rfemur -73.3477 14.941 11.2537
rtibia 50.4585
rfoot 349.155 350.73
rtoes -25.2745
lfemur -18.4943 -3.65769 -21.7585
ltibia 30.9023
lfoot -16.2357 -5.87471
ltoes -56.1625
203
root 8.063 16.6056 11.7732 -175.725 -0.65546 -175.775
lowerback 11.4423 -0.949213 -8.75776
upperback 5.58682 -2.77024 1.868
thorax -0.0301945 -1.87045 7.21973
lowerneck -8.3076 0.316531 -2.46388
upperneck 23.3814 0.970176 5.6314
head 8.5878 1.31142 2.49094
rclavicle -6.75868e-015 4.77083e-015
rhumerus -48.2482 -9.43695 -73.6671
rradius 47.7854
rwrist 3.50794
rhand -14.2905 -34.6829
rfingers 7.12502
rthumb 11.849 -64.3276
lclavicle -6.75868e-015 4.77083e-015
lhumerus -10.7058 -30.3508 91.3094
lradius 62.499
lwrist -19.5745
lhand -39.5088 -29.7284
lfingers 7.12502
lthumb -12.4942 -0.121901
rfemur -71.858 14.6437 11.7568
rtibia 49.5841
rfoot 349.23 350.883
rtoes -24.3719
lfemur -18.6879 -3.77717 -21.2979
ltibia 30.6903
lfoot -15.5485 -5.88703
ltoes -55.2848
204
root 8.07149 16.6209 11.743 -175.487 -1.04106 -175.497
lowerback 11.094 -0.877452 -8.65911
upperback 5.48571 -2.60371 1.93914
thorax 0.0208711 -1.77152 7.20966
lowerneck -8.09991 0.262108 -2.44644
upperneck 23.2694 0.898474 5.65458
head 8.51425 1.28358 2.48385
rclavicle 2.14687e-014 -3.73715e-014
rhumerus -47.6488 -8.97324 -73.2273
rradius 47.4585
rwrist 3.74859
rhand -13.8288 -34.8049
rfingers 7.12502
rthumb 12.2942 -64.4235
lclavicle 2.14687e-014 -3.73715e-014
lhumerus -12.13 -29.0782 91.0288
lradius 59.3303
lwrist -20.1803
lhand -39.7323 -29.4388
lfingers 7.12502
lthumb -12.7097 0.15446
rfemur -70.3896 14.2468 12.2283
rtibia 48.8724
rfoot 349.272 350.936
rtoes -25.3998
lfemur -18.69 -3.98492 -20.985
ltibia 30.2323
lfoot -14.821 -5.87656
ltoes -54.3121
205
root 8.07567 16.6367 11.7115 -175.291 -1.34458 -175.418
lowerback 10.7442 -0.789461 -8.67048
upperback 5.49953 -2.44362 1.9517
thorax 0.19822 -1.69584 7.19805
lowerneck -8.39068 0.269207 -2.4408
upperneck 23.4734 0.903263 5.74167
head 8.63727 1.3056 2.52353
rclavicle -2.0276e-014 4.21423e-014
rhumerus -46.8439 -8.63282 -72.889
rradius 47.0702
rwrist 3.83235
rhand -14.0594 -34.9198
rfingers 7.12502
rthumb 12.0718 -64.5516
lclavicle -2.0276e-014 4.21423e-014
lhumerus -13.0166 -27.7329 90.5113
lradius 55.9702
lwrist -20.3805
lhand -39.1756 -27.7859
lfingers 7.12502
lthumb -12.173 1.83994
rfemur -68.9787 13.9655 12.3827
rtibia 48.1759
rfoot 349.413 350.865
rtoes -26.7279
lfemur -18.552 -4.34256 -20.9456
ltibia 29.7022
lfoot -14.4422 -5.82941
ltoes -53.4167
